<svg xmlns="http://www.w3.org/2000/svg" fill-rule="evenodd" clip-rule="evenodd" image-rendering="optimizeQuality" shape-rendering="geometricPrecision" text-rendering="geometricPrecision" viewBox="0 0 3000 3000"><path fill="#333" fill-rule="nonzero" d="M2089 1547.34c-7.36-12.71-23.64-17.05-36.35-9.69-12.71 7.36-17.05 23.64-9.69 36.35l58.2 100.8c7.36 12.71 23.64 17.05 36.35 9.69 12.71-7.36 17.05-23.64 9.69-36.35l-58.2-100.8zM1703.78 1946.1c14.73 0 26.67-11.94 26.67-26.67 0-14.73-11.94-26.67-26.67-26.67l-766.35 0c-14.73 0-26.67 11.94-26.67 26.67 0 14.73 11.94 26.67 26.67 26.67l766.35 0zM1615.75 1656.13c14.73 0 26.67-11.94 26.67-26.67 0-14.73-11.94-26.67-26.67-26.67l-678.33 0c-14.73 0-26.67 11.94-26.67 26.67 0 14.73 11.94 26.67 26.67 26.67l678.33 0zM1507.01 1366.15c14.73 0 26.67-11.94 26.67-26.67 0-14.73-11.94-26.67-26.67-26.67l-569.59 0c-14.73 0-26.67 11.94-26.67 26.67 0 14.73 11.94 26.67 26.67 26.67l569.59 0zM1461.09 1076.18c14.73 0 26.67-11.94 26.67-26.67 0-14.73-11.94-26.67-26.67-26.67l-523.67 0c-14.73 0-26.67 11.94-26.67 26.67 0 14.73 11.94 26.67 26.67 26.67l523.67 0z"/><path fill="#333" fill-rule="nonzero" d="M2007.57 1039.04c158.47,42.46 252.72,205.67 210.27,364.14 -19.69,73.48 -67.43,139.46 -138.52,180.52l0 0.07c-0.8,0.46 -1.61,0.87 -2.43,1.24 -70.56,39.91 -150.57,47.89 -223.2,28.43 -73.48,-19.69 -139.47,-67.42 -180.52,-138.52l-0.07 0c-0.46,-0.8 -0.87,-1.61 -1.24,-2.43 -39.91,-70.56 -47.89,-150.57 -28.43,-223.2 19.69,-73.48 67.43,-139.46 138.52,-180.52l0 -0.07c67.86,-39.36 149.93,-49.95 225.62,-29.68zm-13.75 51.46c-59.7,-15.99 -125.39,-9.51 -183.24,23.16 -0.63,0.44 -1.28,0.86 -1.96,1.25l-0.03 -0.06c-58.35,33.7 -97.54,87.87 -113.7,148.2 -15.99,59.69 -9.51,125.37 23.15,183.22 0.8,1.13 1.51,2.33 2.12,3.57 33.76,57.5 87.5,96.13 147.3,112.14 59.69,15.99 125.37,9.51 183.22,-23.15 1.13,-0.8 2.33,-1.51 3.57,-2.12 57.5,-33.76 96.13,-87.5 112.15,-147.3 34.85,-130.09 -42.41,-264.07 -172.56,-298.94z"/><path fill="gray" fill-rule="nonzero" d="M2065.75 1664.49l91.94 -53.08c15.56,-8.99 33.32,-10.81 49.39,-6.51 16.04,4.3 30.5,14.77 39.52,30.38l90.76 157.2c16.41,28.43 19.73,60.9 11.85,90.31 -17.05,63.63 -82.17,101.28 -145.83,84.23 -28.55,-7.65 -54.35,-25.89 -70.88,-52.99 -0.56,-0.77 -1.09,-1.58 -1.58,-2.43l0.06 -0.03 -89.81 -155.57c-0.84,-1.24 -1.58,-2.56 -2.21,-3.94 -7.87,-14.99 -9.31,-31.79 -5.22,-47.06 4.11,-15.37 13.84,-29.27 28.24,-38.3 1.2,-0.85 2.46,-1.6 3.79,-2.24z"/><path fill="gray" fill-rule="nonzero" d="M2184.36 1657.45c-30.15,17.41 -64.6,35.5 -93.62,54.04 -0.31,0.2 -0.63,0.41 -0.95,0.61 -2.31,1.63 -3.91,4.02 -4.61,6.67 -0.8,2.98 -0.5,6.22 1.09,8.97l0 0 0.02 0.02 0.06 -0.03c0.32,0.55 0.61,1.11 0.89,1.67l89.81 155.54 0.07 0c0.35,0.61 0.69,1.24 0.98,1.87 9.07,14.63 23.26,24.54 39.03,28.76 35.33,9.46 71.15,-11.14 80.63,-46.52 4.39,-16.42 2.6,-34.45 -6.44,-50.11l-90.76 -157.2c-1.57,-2.72 -4.22,-4.58 -7.22,-5.38 -2.98,-0.8 -6.22,-0.5 -8.97,1.09z"/><path fill="#333" fill-rule="nonzero" d="M756.18 701.8l1128.83 0c30.14,0 57.53,12.31 77.37,32.15 19.83,19.83 32.15,47.23 32.15,77.37l0 246.8c0,14.73 -11.94,26.67 -26.67,26.67 -1.87,0 -3.7,-0.19 -5.46,-0.56 -25.83,-3.41 -52.38,-2.69 -78.56,2.42 -25.85,5.04 -51.26,14.36 -75.22,28.19l-0.02 0.01 -0.02 0.01 0.03 0.06c-0.49,0.28 -0.99,0.55 -1.49,0.8 -57.54,33.76 -96.21,87.52 -112.24,147.35 -16.18,60.39 -9.35,126.91 24.3,185.25l0.1 -0.06c0.4,0.69 0.77,1.4 1.1,2.11 25.14,42.63 61.3,74.85 102.75,95.12 43.35,21.2 92.56,29.31 141.07,22.6l-0.01 -0.06c14.59,-2.02 28.05,8.17 30.07,22.76 0.17,1.23 0.25,2.45 0.25,3.66l0 0 0 594.26c0,30.14 -12.31,57.53 -32.15,77.36 -19.83,19.83 -47.23,32.15 -77.37,32.15l-1128.83 0c-30.14,0 -57.53,-12.31 -77.37,-32.15 -19.83,-19.83 -32.15,-47.22 -32.15,-77.36l0 -1377.38c0,-30.14 12.31,-57.53 32.15,-77.37 19.83,-19.83 47.23,-32.15 77.37,-32.15zm887.25 547.52c29.64,-110.62 119.89,-193.43 230.21,-214.96 22.41,-4.37 45.07,-6.09 67.56,-5.26l0 -217.78c0,-15.42 -6.33,-29.47 -16.52,-39.66 -10.19,-10.19 -24.24,-16.52 -39.66,-16.52l-1128.83 0c-15.42,0 -29.47,6.33 -39.66,16.52 -10.19,10.19 -16.52,24.24 -16.52,39.66l0 1377.38c0,15.42 6.33,29.46 16.52,39.65 10.19,10.19 24.24,16.52 39.66,16.52l1128.83 0c15.42,0 29.47,-6.33 39.66,-16.52 10.19,-10.19 16.52,-24.24 16.52,-39.65l0 -565.29c-48.93,1.69 -97.57,-8.79 -141.38,-30.21 -127.28,-62.23 -193.29,-206.13 -156.38,-343.88z"/></svg>