<svg xmlns="http://www.w3.org/2000/svg" enable-background="new 0 0 32 32" viewBox="0 0 32 32"><path fill="#263238" d="M19.5 27.5h-7H19.5zM19.5 28h-7c-.276 0-.5-.224-.5-.5s.224-.5.5-.5h7c.276 0 .5.224.5.5S19.776 28 19.5 28zM3.5 28h-1C2.224 28 2 27.776 2 27.5v-2C2 25.224 2.224 25 2.5 25S3 25.224 3 25.5V27h.5C3.776 27 4 27.224 4 27.5S3.776 28 3.5 28z"/><path fill="#263238" d="M4.5 26h-3C1.224 26 1 25.776 1 25.5S1.224 25 1.5 25h3C4.776 25 5 25.224 5 25.5S4.776 26 4.5 26zM30.5 26.5c-.276 0-.5-.224-.5-.5v-6.911l-2.505-6.799C26.99 10.92 25.67 10 24.211 10H20v15.5c0 .276-.224.5-.5.5S19 25.776 19 25.5v-16C19 9.224 19.224 9 19.5 9h4.711c1.876 0 3.573 1.183 4.223 2.944l2.536 6.883C30.99 18.883 31 18.941 31 19v7C31 26.276 30.776 26.5 30.5 26.5z"/><path fill="#263238" d="M30 28h-1.5c-.276 0-.5-.224-.5-.5s.224-.5.5-.5H30v-1h-2.5c-.276 0-.5-.224-.5-.5s.224-.5.5-.5H30c.551 0 1 .448 1 1v1C31 27.552 30.551 28 30 28zM24 31c-1.654 0-3-1.346-3-3s1.346-3 3-3 3 1.346 3 3S25.654 31 24 31zM24 26c-1.103 0-2 .897-2 2s.897 2 2 2 2-.897 2-2S25.103 26 24 26zM8 31c-1.654 0-3-1.346-3-3s1.346-3 3-3 3 1.346 3 3S9.654 31 8 31zM8 26c-1.103 0-2 .897-2 2s.897 2 2 2 2-.897 2-2S9.103 26 8 26z"/><circle cx="24" cy="28" r="1" fill="#263238"/><circle cx="8" cy="28" r="1" fill="#263238"/><path fill="#263238" d="M31 20h-5.5c-1.93 0-3.5-1.57-3.5-3.5v-3c0-.827.673-1.5 1.5-1.5h4.954L31 19V20zM23.5 13c-.276 0-.5.224-.5.5v3c0 1.379 1.122 2.5 2.5 2.5h4.467l-2.21-6H23.5zM30.5 26h-3c-.276 0-.5-.224-.5-.5v-2c0-.276.224-.5.5-.5h3c.276 0 .5.224.5.5v2C31 25.776 30.776 26 30.5 26zM28 25h2v-1h-2V25zM2.5 31h-1C1.224 31 1 30.776 1 30.5S1.224 30 1.5 30h1C2.776 30 3 30.224 3 30.5S2.776 31 2.5 31zM4.5 31C4.224 31 4 30.776 4 30.5l0 0C4 30.224 4.224 30 4.5 30H24c.276 0 .5.224.5.5S24.276 31 24 31H4.5zM9.505 20.004c-.081 0-.162-.02-.236-.06-.163-.087-.264-.256-.264-.44v-1.5h-7.5c-.276 0-.5-.224-.5-.5s.224-.5.5-.5h8c.276 0 .5.224.5.5v1.065l4.599-3.065-4.599-3.066v1.066c0 .276-.224.5-.5.5h-4c-.276 0-.5-.224-.5-.5s.224-.5.5-.5h3.5v-1.5c0-.185.102-.354.264-.441.162-.087.36-.078.513.025l6 4c.139.093.223.249.223.416s-.083.323-.223.416l-6 4C9.699 19.976 9.603 20.004 9.505 20.004z"/><circle cx="3.5" cy="13.508" r=".5" fill="#263238"/><path fill="#263238" d="M1.5 26C1.224 26 1 25.776 1 25.5v-18C1 7.224 1.224 7 1.5 7S2 7.224 2 7.5v18C2 25.776 1.776 26 1.5 26zM19.5 28c-.276 0-.5-.224-.5-.5V6H1.5C1.224 6 1 5.776 1 5.5S1.224 5 1.5 5h18C19.776 5 20 5.224 20 5.5v22C20 27.776 19.776 28 19.5 28z"/></svg>